TITLE ""
FILE "1Q_t_1389-1400.mp3" MP3
  TRACK 01 AUDIO
    TITLE "1Q_t_1389-1400_01"
    INDEX 01 00:00:00
  TRACK 02 AUDIO
    TITLE "1Q_t_1389-1400_02"
    INDEX 01 00:01:35
  TRACK 03 AUDIO
    TITLE "1Q_t_1389-1400_03"
    INDEX 01 00:01:41
  TRACK 04 AUDIO
    TITLE "1Q_t_1389-1400_04"
    INDEX 01 00:03:03
  TRACK 05 AUDIO
    TITLE "1Q_t_1389-1400_05"
    INDEX 01 00:03:09
  TRACK 06 AUDIO
    TITLE "1Q_t_1389-1400_06"
    INDEX 01 00:10:19
  TRACK 07 AUDIO
    TITLE "1Q_t_1389-1400_07"
    INDEX 01 00:10:62
  TRACK 08 AUDIO
    TITLE "1Q_t_1389-1400_08"
    INDEX 01 00:12:06
  TRACK 09 AUDIO
    TITLE "1Q_t_1389-1400_09"
    INDEX 01 00:12:13
  TRACK 10 AUDIO
    TITLE "1Q_t_1389-1400_10"
    INDEX 01 00:14:59
  TRACK 11 AUDIO
    TITLE "1Q_t_1389-1400_11"
    INDEX 01 00:14:65
  TRACK 12 AUDIO
    TITLE "1Q_t_1389-1400_12"
    INDEX 01 00:19:53
  TRACK 13 AUDIO
    TITLE "1Q_t_1389-1400_13"
    INDEX 01 00:20:23
  TRACK 14 AUDIO
    TITLE "1Q_t_1389-1400_14"
    INDEX 01 00:21:44
  TRACK 15 AUDIO
    TITLE "1Q_t_1389-1400_15"
    INDEX 01 00:21:52
  TRACK 16 AUDIO
    TITLE "1Q_t_1389-1400_16"
    INDEX 01 00:23:31
  TRACK 17 AUDIO
    TITLE "1Q_t_1389-1400_17"
    INDEX 01 00:23:37
  TRACK 18 AUDIO
    TITLE "1Q_t_1389-1400_18"
    INDEX 01 00:30:31
  TRACK 19 AUDIO
    TITLE "1Q_t_1389-1400_19"
    INDEX 01 00:30:74
  TRACK 20 AUDIO
    TITLE "1Q_t_1389-1400_20"
    INDEX 01 00:32:10
  TRACK 21 AUDIO
    TITLE "1Q_t_1389-1400_21"
    INDEX 01 00:32:20
  TRACK 22 AUDIO
    TITLE "1Q_t_1389-1400_22"
    INDEX 01 00:34:58
  TRACK 23 AUDIO
    TITLE "1Q_t_1389-1400_23"
    INDEX 01 00:34:64
  TRACK 24 AUDIO
    TITLE "1Q_t_1389-1400_24"
    INDEX 01 00:40:31
  TRACK 25 AUDIO
    TITLE "1Q_t_1389-1400_25"
    INDEX 01 00:41:01
  TRACK 26 AUDIO
    TITLE "1Q_t_1389-1400_26"
    INDEX 01 00:42:24
  TRACK 27 AUDIO
    TITLE "1Q_t_1389-1400_27"
    INDEX 01 00:42:38
  TRACK 28 AUDIO
    TITLE "1Q_t_1389-1400_28"
    INDEX 01 00:45:09
  TRACK 29 AUDIO
    TITLE "1Q_t_1389-1400_29"
    INDEX 01 00:45:17
  TRACK 30 AUDIO
    TITLE "1Q_t_1389-1400_30"
    INDEX 01 00:51:12
  TRACK 31 AUDIO
    TITLE "1Q_t_1389-1400_31"
    INDEX 01 00:51:64
  TRACK 32 AUDIO
    TITLE "1Q_t_1389-1400_32"
    INDEX 01 00:53:24
  TRACK 33 AUDIO
    TITLE "1Q_t_1389-1400_33"
    INDEX 01 00:53:34
  TRACK 34 AUDIO
    TITLE "1Q_t_1389-1400_34"
    INDEX 01 00:55:70
  TRACK 35 AUDIO
    TITLE "1Q_t_1389-1400_35"
    INDEX 01 00:56:01
  TRACK 36 AUDIO
    TITLE "1Q_t_1389-1400_36"
    INDEX 01 01:02:25
  TRACK 37 AUDIO
    TITLE "1Q_t_1389-1400_37"
    INDEX 01 01:02:72
  TRACK 38 AUDIO
    TITLE "1Q_t_1389-1400_38"
    INDEX 01 01:04:01
  TRACK 39 AUDIO
    TITLE "1Q_t_1389-1400_39"
    INDEX 01 01:04:06
  TRACK 40 AUDIO
    TITLE "1Q_t_1389-1400_40"
    INDEX 01 01:06:50
  TRACK 41 AUDIO
    TITLE "1Q_t_1389-1400_41"
    INDEX 01 01:06:56
  TRACK 42 AUDIO
    TITLE "1Q_t_1389-1400_42"
    INDEX 01 01:12:16
  TRACK 43 AUDIO
    TITLE "1Q_t_1389-1400_43"
    INDEX 01 01:12:61
  TRACK 44 AUDIO
    TITLE "1Q_t_1389-1400_44"
    INDEX 01 01:14:13
  TRACK 45 AUDIO
    TITLE "1Q_t_1389-1400_45"
    INDEX 01 01:14:22
  TRACK 46 AUDIO
    TITLE "1Q_t_1389-1400_46"
    INDEX 01 01:16:51
  TRACK 47 AUDIO
    TITLE "1Q_t_1389-1400_47"
    INDEX 01 01:16:60
  TRACK 48 AUDIO
    TITLE "1Q_t_1389-1400_48"
    INDEX 01 01:22:73
  TRACK 49 AUDIO
    TITLE "1Q_t_1389-1400_49"
    INDEX 01 01:23:41
  TRACK 50 AUDIO
    TITLE "1Q_t_1389-1400_50"
    INDEX 01 01:24:70
  TRACK 51 AUDIO
    TITLE "1Q_t_1389-1400_51"
    INDEX 01 01:25:05
  TRACK 52 AUDIO
    TITLE "1Q_t_1389-1400_52"
    INDEX 01 01:27:62
  TRACK 53 AUDIO
    TITLE "1Q_t_1389-1400_53"
    INDEX 01 01:27:70
  TRACK 54 AUDIO
    TITLE "1Q_t_1389-1400_54"
    INDEX 01 01:34:15
  TRACK 55 AUDIO
    TITLE "1Q_t_1389-1400_55"
    INDEX 01 01:34:60
  TRACK 56 AUDIO
    TITLE "1Q_t_1389-1400_56"
    INDEX 01 01:36:10
  TRACK 57 AUDIO
    TITLE "1Q_t_1389-1400_57"
    INDEX 01 01:36:18
  TRACK 58 AUDIO
    TITLE "1Q_t_1389-1400_58"
    INDEX 01 01:38:58
  TRACK 59 AUDIO
    TITLE "1Q_t_1389-1400_59"
    INDEX 01 01:38:66
  TRACK 60 AUDIO
    TITLE "1Q_t_1389-1400_60"
    INDEX 01 01:44:45
  TRACK 61 AUDIO
    TITLE "1Q_t_1389-1400_61"
    INDEX 01 01:45:17
  TRACK 62 AUDIO
    TITLE "1Q_t_1389-1400_62"
    INDEX 01 01:46:50
  TRACK 63 AUDIO
    TITLE "1Q_t_1389-1400_63"
    INDEX 01 01:46:58
  TRACK 64 AUDIO
    TITLE "1Q_t_1389-1400_64"
    INDEX 01 01:48:33
  TRACK 65 AUDIO
    TITLE "1Q_t_1389-1400_65"
    INDEX 01 01:48:41
  TRACK 66 AUDIO
    TITLE "1Q_t_1389-1400_66"
    INDEX 01 01:54:34
  TRACK 67 AUDIO
    TITLE "1Q_t_1389-1400_67"
    INDEX 01 01:55:06
  TRACK 68 AUDIO
    TITLE "1Q_t_1389-1400_68"
    INDEX 01 01:56:05
  TRACK 69 AUDIO
    TITLE "1Q_t_1389-1400_69"
    INDEX 01 01:56:11
  TRACK 70 AUDIO
    TITLE "1Q_t_1389-1400_70"
    INDEX 01 01:58:10
  TRACK 71 AUDIO
    TITLE "1Q_t_1389-1400_71"
    INDEX 01 01:58:16
  TRACK 72 AUDIO
    TITLE "1Q_t_1389-1400_72"
    INDEX 01 02:01:47
